<svg id="Layer_1" data-name="Layer 1" xmlns="http://www.w3.org/2000/svg" viewBox="0 0 144 34.99"><defs><style>.cls-1{fill:#fff;}.cls-2{fill:#e30613;}</style></defs><path class="cls-1" d="M21.87.55V9.92a8.75,8.75,0,0,0-12,12,8.82,8.82,0,0,0,3.21,3.21,8.75,8.75,0,0,0,8.74,0,8.82,8.82,0,0,0,3.21-3.21,8.73,8.73,0,0,0,1.17-4.37V2.35A17.35,17.35,0,0,0,21.87.55Z"/><path class="cls-2" d="M34.44,13.12a16.78,16.78,0,0,0-1.8-4.37,15.87,15.87,0,0,0-2-2.81,12.77,12.77,0,0,0-1.56-1.56,16.07,16.07,0,0,0-2.81-2V17.5a8.73,8.73,0,0,1-1.17,4.37,8.82,8.82,0,0,1-3.21,3.21,8.75,8.75,0,0,1-8.74,0,8.82,8.82,0,0,1-3.21-3.21,8.75,8.75,0,0,1,12-12V.55A17.42,17.42,0,0,0,8.75,2.35a16.38,16.38,0,0,0-2.82,2A14.18,14.18,0,0,0,4.38,5.93a16.93,16.93,0,0,0-2,2.82,17.13,17.13,0,0,0-1.8,4.37,17.68,17.68,0,0,0,0,8.75,17.35,17.35,0,0,0,1.8,4.38,16.07,16.07,0,0,0,2,2.81,14.27,14.27,0,0,0,1.55,1.56,16.88,16.88,0,0,0,2.82,2,17,17,0,0,0,4.38,1.8,17.64,17.64,0,0,0,8.74,0,17,17,0,0,0,4.38-1.8,16,16,0,0,0,2.81-2,13.6,13.6,0,0,0,1.56-1.57,15.45,15.45,0,0,0,2-2.8,17,17,0,0,0,1.8-4.38,17.68,17.68,0,0,0,0-8.75Z"/><path class="cls-2" d="M17.5,21.87a4.38,4.38,0,1,1,4.37-4.37A4.36,4.36,0,0,1,17.5,21.87Z"/><path d="M58.42,6V28.55H53.58V27a6,6,0,0,1-4.8,2c-4.21,0-7.69-3.71-7.69-8.51S44.57,12,48.78,12a6.05,6.05,0,0,1,4.8,2V6ZM53.58,20.49a3.83,3.83,0,1,0-7.66,0,3.83,3.83,0,1,0,7.66,0Z"/><path d="M70.14,24.68a4.23,4.23,0,0,0,3.09-1.22l3.87,2.22a8.17,8.17,0,0,1-7,3.32c-5.51,0-8.93-3.71-8.93-8.51A8.26,8.26,0,0,1,69.72,12a8.13,8.13,0,0,1,8.18,8.5,9.39,9.39,0,0,1-.19,1.94H66.28C66.89,24.1,68.37,24.68,70.14,24.68Zm3-5.86a3.62,3.62,0,0,0-6.92,0Z"/><path d="M79.67,20.49a8.52,8.52,0,0,1,15.82-4.38l-4.22,2.45a3.33,3.33,0,0,0-3.12-1.8,3.54,3.54,0,0,0-3.64,3.73,3.54,3.54,0,0,0,3.64,3.74,3.31,3.31,0,0,0,3.12-1.8l4.22,2.41A8.22,8.22,0,0,1,88.21,29,8.35,8.35,0,0,1,79.67,20.49Z"/><path d="M105.28,24.68a4.27,4.27,0,0,0,3.1-1.22l3.86,2.22a8.17,8.17,0,0,1-7,3.32c-5.51,0-8.92-3.71-8.92-8.51a8.25,8.25,0,0,1,8.56-8.5,8.13,8.13,0,0,1,8.19,8.5,9.38,9.38,0,0,1-.2,1.94H101.42C102,24.1,103.51,24.68,105.28,24.68Zm3-5.86a3.63,3.63,0,0,0-6.93,0Z"/><path d="M131.24,18.66v9.89h-4.83V19.36a2.66,2.66,0,0,0-2.8-2.93c-1.77,0-3,1-3,3.32v8.8h-4.83V12.44h4.83V14a5.53,5.53,0,0,1,4.61-2C128.47,12,131.24,14.31,131.24,18.66Z"/><path d="M140.68,17.08v5.7c0,1.38,1.19,1.51,3.32,1.38v4.39c-6.31.64-8.15-1.26-8.15-5.77v-5.7h-2.58V12.44h2.58V9.38l4.83-1.45v4.51H144v4.64Z"/></svg>